{"title":"KAMELIA AKCENT 4K REMASTERED [PhYsIcIaN]","uid":11164679,"size":526372782,"categoryP":"other","categoryS":"other","magnet":"?xt=urn:btih:2e01b07b30ec45c2dbda08aec195d1b36b009b20&amp;dn=KAMELIA+AKCENT+4K+REMASTERED+%5BPhYsIcIaN%5D&amp;tr=udp%3A%2F%2Ftracker.openbittorrent.com%3A80&amp;tr=udp%3A%2F%2Fopen.demonii.com%3A1337&amp;tr=udp%3A%2F%2Ftracker.coppersurfer.tk%3A6969&amp;tr=udp%3A%2F%2Fexodus.desync.com%3A6969","seeders":2,"leechers":1,"uploader":null,"files":2,"time":1412613191,"description":"PhYsIcIaN is the independent official person that entitles the ownership of shares of two companies SONY &amp; RED DRAGON.\nThis is the cinema 4K version resolution of such video. This video taken from 8k camera (astro) this is ultra hd version of such video because 8K resolution is prohibited by law.\nReolutions by Sizes\n1K (1920*1080p)                                     21&quot; screen size compatible \n2K (2560*1600p)                                     26&quot; screen size compatible\n4K Native (3840*2160p)                      42&quot; screen size compatible\n4K Cinema (4096*2304p)                    46&quot; screen size compatible\n8K Native (7680*4320p)                      76&quot; screen size compatible\n8K Max cinema not yet available.\nRecommendations.\nUse Kmplayer Media player for pc users.\n321 Codec pack media player also can play this file.\nVlc media player also can play this content.\nPc requirements.\nProcessor : At least Intel core 2 duo 2.33 Ghz\nAt least 2 cores Amd or equivelent.\nRam : At least 2 Gb 667 MHz.\nGPU. At least 256Mb 3D video memory.\nNote: If you don,t have 3D accerlated card then this video not provide you optimized graphics vision experiances.\nThis Content Info.\nGeneral\nComplete name                    : D:SONGSVIDEOUntitled.mp4\nFormat                                      : MPEG-4\nFormat profile                       : Base Media / Version 2\nCodec ID                                   : mp42\nFile size                                    : 737 MiB\nDuration                                   : 4mn 28s\nOverall bit rate mode         : Variable\nOverall bit rate                      : 23.0 Mbps\nEncoded date                         : UTC 2014-10-06 15:55:54\nTagged date                           : UTC 2014-10-06 15:55:54\n\nVideo\nID                                               : 2\nFormat                                    : AVC\nFormat/Info                          : Advanced Video Codec\nFormat profile                      : &lt;a class=&quot;__cf_email__&quot; href=&quot;/cdn-cgi/l/email-protection&quot; data-cfemail=&quot;c28aaba5aa828ef7ecf3&quot;&gt;[email&amp;#160;protected]&lt;/a&gt;&lt;script cf-hash='f9e31' type=&quot;text/javascript&quot;&gt;\n/* &lt;![CDATA[ */!function(){try{var t=&quot;currentScript&quot;in document?document.currentScript:function(){for(var t=document.getElementsByTagName(&quot;script&quot;),e=t.length;e--;)if(t[e].getAttribute(&quot;cf-hash&quot;))return t[e]}();if(t&amp;&amp;t.previousSibling){var e,r,n,i,c=t.previousSibling,a=c.getAttribute(&quot;data-cfemail&quot;);if(a){for(e=&quot;&quot;,r=parseInt(a.substr(0,2),16),n=2;a.length-n;n+=2)i=parseInt(a.substr(n,2),16)^r,e+=String.fromCharCode(i);e=document.createTextNode(e),c.parentNode.replaceChild(e,c)}}}catch(u){}}();/* ]]&gt; */&lt;/script&gt;\nFormat settings, CAB         : Yes\nFormat settings, ReFrames                : 3 frames\nCodec ID                                 : avc1\nCodec ID/Info                        : Advanced Video Coding\nDuration                                  : 4mn 28s\nBit rate mode                        : Variable\nBit rate                                     : 22.5 Mbps\nMaximum bit rate                : 24.0 Mbps\nWidth                                        : 4 096 pixels\nHeight                                       : 2 304 pixels\nDisplay aspect ratio             : 16:9\nFrame rate mode                  : Constant\nFrame rate                               : 23.976 fps\nStandard                                  : NTSC\nColor space                             : YUV\nChroma subsampling          : 4:2:0\nBit depth                                  : 8 bits\nScan type                                  : Progressive\nBits/(Pixel*Frame)               : 0.099\nStream size                              : 721 MiB (98%)\nLanguage                                  : English\nEncoded date                         : UTC 2014-10-06 15:55:54\nTagged date                            : UTC 2014-10-06 15:55:54\nColor primaries                     : BT.709\nTransfer characteristics     : BT.709\nMatrix coefficients              : BT.709\n\nAudio\nID                                                  : 1\nFormat                                       : AAC\nFormat/Info                             : Advanced Audio Codec\nFormat profile                        : LC\nCodec ID                                    : 40\nDuration                                    : 4mn 28s\nBit rate mode                          : Constant\nBit rate                                       : 512 Kbps\nChannel(s)                                :  channel0\nChannel(s)_Original             : 2 channels\nChannel positions                 : Front: L R\nSampling rate                          : 48.0 KHz\nCompression mode              : Lossy\nStream size                              : 16.4 MiB (2%)\nLanguage                                  : English\nEncoded date                          : UTC 2014-10-06 15:55:54\nTagged date                            : UTC 2014-10-06 15:55:54\n\n \n &lt;a href=&quot;\nhttp://bayimg.com/lAAdgAAGO&quot; rel=&quot;nofollow&quot; target=&quot;_NEW&quot;&gt;\nhttp://bayimg.com/lAAdgAAGO&lt;/a&gt; &lt;a href=&quot;\nhttp://bayimg.com/LAaDiaago&quot; rel=&quot;nofollow&quot; target=&quot;_NEW&quot;&gt;\nhttp://bayimg.com/LAaDiaago&lt;/a&gt;","torrent":{"xt":"urn:btih:2e01b07b30ec45c2dbda08aec195d1b36b009b20","amp;dn":"KAMELIA+AKCENT+4K+REMASTERED+%5BPhYsIcIaN%5D","amp;tr":["udp%3A%2F%2Ftracker.openbittorrent.com%3A80","udp%3A%2F%2Fopen.demonii.com%3A1337","udp%3A%2F%2Ftracker.coppersurfer.tk%3A6969","udp%3A%2F%2Fexodus.desync.com%3A6969"],"infoHash":"2e01b07b30ec45c2dbda08aec195d1b36b009b20","infoHashBuffer":{"type":"Buffer","data":[46,1,176,123,48,236,69,194,219,218,8,174,193,149,209,179,107,0,155,32]},"announce":[],"urlList":[]}}